<?xml version="1.0" standalone="no"?>
<!DOCTYPE svg PUBLIC "-//W3C//DTD SVG 20010904//EN"
 "http://www.w3.org/TR/2001/REC-SVG-20010904/DTD/svg10.dtd">
<svg version="1.0" xmlns="http://www.w3.org/2000/svg"
 width="551.000000pt" height="551.000000pt" viewBox="0 0 551.000000 551.000000"
 preserveAspectRatio="xMidYMid meet">
<metadata>
Created by potrace 1.11, written by Peter Selinger 2001-2013
</metadata>
<g transform="translate(0.000000,551.000000) scale(0.100000,-0.100000)"
fill="#000000" stroke="none">
<path d="M1117 4463 c-10 -3 -20 -18 -24 -34 -7 -35 -5 -34 -128 -9 -53 11
-107 20 -119 20 -27 0 -140 -134 -133 -159 2 -9 14 -39 25 -67 l21 -51 -25
-13 c-40 -22 -31 -49 48 -143 26 -33 46 -63 43 -68 -3 -4 -21 -16 -39 -24 -18
-9 -38 -27 -45 -41 -10 -22 -8 -28 16 -50 15 -14 57 -45 93 -70 117 -79 115
-75 56 -124 -83 -69 -80 -65 -67 -89 7 -12 42 -41 79 -65 89 -57 98 -68 77
-99 -21 -33 -12 -51 38 -73 75 -32 87 -54 50 -92 -7 -7 -13 -20 -13 -27 0 -16
80 -99 135 -140 57 -42 105 -87 105 -97 0 -16 -67 -8 -140 18 -53 18 -76 22
-84 14 -6 -6 -12 -51 -12 -103 -2 -102 11 -161 71 -322 63 -172 79 -209 94
-228 19 -22 28 -14 -125 -107 -121 -73 -208 -151 -216 -193 -7 -38 19 -68 62
-72 31 -3 40 2 77 42 39 42 63 49 63 18 0 -25 58 -140 87 -170 15 -17 54 -50
86 -73 31 -24 57 -45 57 -49 0 -12 -79 -109 -137 -168 -97 -99 -111 -108 -165
-109 -46 -1 -67 -14 -68 -39 0 -5 14 -22 31 -38 22 -20 41 -29 65 -29 35 0
114 29 114 42 0 5 6 8 14 8 7 0 65 50 127 111 63 60 121 114 130 119 12 7 33
-3 80 -36 104 -74 108 -75 354 -79 99 -2 183 -4 187 -4 3 -1 5 -44 4 -97 -5
-169 32 -286 99 -318 41 -20 56 -15 50 16 -19 98 -27 276 -13 284 5 3 4 13 -2
23 -5 10 -6 22 -2 25 4 4 7 15 7 24 0 13 11 18 49 20 83 5 92 0 116 -72 12
-36 50 -106 90 -165 39 -56 70 -106 70 -111 0 -25 184 -187 221 -195 33 -8 81
18 120 63 19 22 31 28 59 26 19 -1 35 -3 35 -4 0 -10 55 -5 77 6 40 20 44 19
79 -33 37 -54 50 -65 98 -89 38 -18 48 -12 56 36 3 19 11 40 18 47 7 7 60 25
119 41 103 28 163 55 155 70 -9 15 30 65 52 69 12 2 32 10 44 18 34 24 52 18
90 -30 19 -25 69 -83 109 -128 41 -45 90 -99 107 -119 18 -21 41 -38 50 -38
18 0 51 29 51 45 0 16 74 165 82 165 4 0 8 4 8 9 0 6 25 50 55 100 30 50 55
93 55 96 0 15 47 105 72 135 15 19 28 40 28 47 0 7 3 13 8 13 4 0 19 26 34 58
37 78 74 113 179 169 82 44 89 50 87 76 -2 19 -12 34 -34 48 -18 11 -34 25
-37 32 -2 7 16 30 41 52 77 68 85 78 127 160 17 33 33 62 38 63 4 2 7 10 7 17
0 7 3 15 8 17 15 6 90 114 94 133 2 16 -2 19 -22 17 -13 -1 -35 -12 -47 -24
-13 -12 -24 -16 -24 -10 -1 7 -2 18 -3 25 -1 6 4 34 12 62 8 27 16 61 19 74 2
13 8 32 13 41 5 10 6 20 3 24 -3 3 -2 6 4 6 5 0 10 6 11 13 5 38 9 54 15 64
14 22 -28 51 -84 58 -30 4 -68 13 -86 20 -41 17 -72 71 -40 72 16 1 63 10 87
18 19 6 44 69 38 95 -2 6 25 22 59 34 88 33 113 51 113 84 0 15 -7 37 -15 49
-14 20 -12 24 35 72 64 65 120 152 125 197 7 51 -26 63 -140 51 -47 -5 -88 -7
-91 -4 -3 3 -8 20 -11 39 -3 18 -6 35 -8 37 -6 6 -67 5 -117 -3 -47 -6 -48 -6
-62 27 -16 40 -44 50 -82 31 -14 -8 -28 -14 -30 -14 -13 0 -59 61 -78 104 -13
28 -31 57 -40 65 -19 16 -65 101 -72 135 -3 11 -6 26 -7 31 -5 21 -24 45 -87
112 -84 89 -130 144 -130 155 0 10 -10 23 -66 81 -68 70 -69 72 -61 237 l2 45
-40 -3 c-22 -1 -127 -5 -234 -7 l-194 -5 -66 -37 c-36 -20 -120 -67 -185 -105
-81 -47 -126 -68 -140 -64 -12 3 -54 34 -93 69 -40 35 -106 81 -146 101 -88
45 -144 48 -287 16 -180 -40 -186 -43 -235 -140 -60 -117 -91 -132 -174 -83
-65 38 -126 37 -208 -5 l-63 -32 -80 74 c-126 116 -213 145 -227 76 l-5 -30
-29 17 c-16 10 -29 20 -29 23 0 13 -91 51 -108 46 -11 -4 -25 -18 -32 -31 -7
-14 -16 -25 -20 -25 -4 0 -24 16 -45 35 -79 75 -144 115 -226 139 -29 9 -53
15 -53 15 -1 -1 -9 -3 -19 -6z"/>
</g>
</svg>
